<svg width="682.667" height="682.667" xmlns="http://www.w3.org/2000/svg"><defs><clipPath clipPathUnits="userSpaceOnUse" id="prefix__a"><path d="M0 512h512V0H0z"/></clipPath></defs><g clip-path="url(#prefix__a)" transform="matrix(1.33333 0 0 -1.33333 0 682.667)"><path d="M504.919 47.672c-17.821 64.83-60.852 116.913-92.488 148.256H99.567C67.932 164.586 24.9 112.503 7.08 47.672.489 23.698 18.398 0 43.26 0h425.478c24.863 0 42.77 23.698 36.18 47.672" fill="#31a7fb"/><path d="M442.785 61.841H69.213c-5.69 0-10.302 4.612-10.302 10.302v73.734c0 5.689 4.612 10.302 10.302 10.302h373.572c5.69 0 10.302-4.613 10.302-10.302V72.143c0-5.69-4.612-10.302-10.302-10.302" fill="#1785f8"/><path d="M468.74 0h-44.72c24.868 0 42.773 23.694 36.18 47.677-17.822 64.828-60.853 116.904-92.489 148.252h44.72c31.636-31.348 74.667-83.424 92.49-148.252C511.512 23.694 493.597 0 468.74 0" fill="#1785f8"/><path d="M255.999 338.533s-139.563-15.335-171.907-65.981c0 0 .109-20.014 21.55-36.622 33.02-25.58 150.357-117.138 150.357-117.138S373.335 210.35 406.356 235.93c21.44 16.608 21.55 36.622 21.55 36.622-32.344 50.646-171.907 65.98-171.907 65.98" fill="#1576f7"/><path d="M427.904 272.553s-.103-20.016-21.55-36.623c-33.018-25.579-150.355-117.14-150.355-117.14s-13.125 10.24-31.833 24.826c21.706 16.926 120.294 93.83 150.468 117.203 22.056 17.091 22.17 37.684 22.17 37.684-.279.434-.568.866-.866 1.299 13.825-7.664 25.23-16.69 31.966-27.248" fill="#0e6ac2"/><path d="M354.271 350.852l-7.307-75.955c-4.518-46.854-43.883-82.624-90.966-82.624-23.535 0-45.158 8.945-61.444 23.74-16.286 14.795-27.257 35.463-29.522 58.884l-7.306 75.955c28.941 4.484 62.491 7.045 98.272 7.045 35.781 0 69.332-2.56 98.273-7.045" fill="#fee7c9"/><path d="M354.267 350.857l-7.108-73.894c-24.858 6.047-55.31 10.487-91.16 10.487-35.85 0-66.302-4.44-91.16-10.487l-7.109 73.894c28.938 4.481 62.491 7.036 98.27 7.036 35.777 0 69.33-2.555 98.267-7.036" fill="#ffd496"/><path d="M351.486 451.875c-6.81 22.38-23.19 36.886-40.496 46.248-34.2 18.5-75.782 18.5-109.982 0-17.307-9.362-33.686-23.869-40.496-46.248-17.202-56.535-76.42-59.186-76.42-179.323 0 0 59.37 43.748 171.907 43.748s171.907-43.748 171.907-43.748c0 120.137-59.218 122.788-76.42 179.323" fill="#64b9fc"/><path d="M427.904 272.553s-14.155 10.425-41.722 21.098c-6.552 99.577-59.637 105.201-75.769 158.225-6.81 22.375-23.19 36.88-40.497 46.244a115.165 115.165 0 01-34.449 12.053c25.487 4.574 52.22.557 75.522-12.053 17.307-9.364 33.687-23.869 40.497-46.244 17.204-56.535 76.418-59.183 76.418-179.322" fill="#31a7fb"/><path d="M61.629 41.309c-5.449 0-9.866-4.417-9.866-9.866v-11.71C51.763 8.835 60.597 0 71.495 0h371.068c10.898 0 19.733 8.835 19.733 19.733v11.71c0 5.449-4.418 9.866-9.867 9.866z" fill="#8dcafc"/><path d="M426.42 212.278V9.868c0-5.448-4.408-9.868-9.858-9.868H95.436c-5.45 0-9.86 4.42-9.86 9.869v202.409a9.853 9.853 0 009.86 9.859h321.126a9.853 9.853 0 009.859-9.86" fill="#d9ecfd"/><path d="M426.421 61.902H85.577v94.333h340.844z" fill="#c4e1ff"/><path d="M426.42 212.278V9.868c0-5.448-4.408-9.868-9.858-9.868h-38.92c5.45 0 9.869 4.42 9.869 9.869v202.409c0 5.45-4.42 9.859-9.87 9.859h38.92a9.853 9.853 0 009.86-9.86" fill="#c4e1ff"/><path d="M442.785 91.8H69.213c-5.69 0-10.302 4.613-10.302 10.303v73.734c0 5.689 4.612 10.3 10.302 10.3h373.572c5.69 0 10.302-4.611 10.302-10.3v-73.734c0-5.69-4.612-10.302-10.302-10.302" fill="#fb5532"/><path d="M453.082 175.835v-73.73a10.292 10.292 0 00-10.302-10.3h-39.56c5.688 0 10.303 4.604 10.303 10.3v73.73c0 5.687-4.615 10.302-10.302 10.302h39.559c5.697 0 10.302-4.615 10.302-10.302" fill="#ec462e"/><path d="M127.141 149.335l-3.326-1.081v3.499a7.727 7.727 0 01-15.453 0v-3.499l-3.327 1.081a7.726 7.726 0 11-4.775-14.696l3.327-1.081-2.056-2.83a7.724 7.724 0 011.71-10.791 7.686 7.686 0 014.534-1.477 7.714 7.714 0 016.257 3.186l2.056 2.83 2.057-2.83a7.712 7.712 0 016.257-3.186 7.725 7.725 0 016.244 12.268l-2.056 2.83 3.327 1.081a7.726 7.726 0 01-4.776 14.696M197.097 149.335l-3.326-1.081v3.499a7.727 7.727 0 01-15.453 0v-3.499l-3.327 1.081a7.726 7.726 0 11-4.775-14.696l3.327-1.081-2.056-2.83a7.724 7.724 0 011.709-10.791 7.686 7.686 0 014.535-1.477 7.714 7.714 0 016.257 3.186l2.056 2.83 2.057-2.83a7.712 7.712 0 016.257-3.186 7.725 7.725 0 016.244 12.268l-2.056 2.83 3.327 1.081a7.727 7.727 0 01-4.776 14.696M267.052 149.335l-3.326-1.081v3.499a7.727 7.727 0 01-15.453 0v-3.499l-3.327 1.081a7.727 7.727 0 01-4.775-14.696l3.327-1.081-2.056-2.83a7.724 7.724 0 011.709-10.791 7.686 7.686 0 014.535-1.477 7.714 7.714 0 016.257 3.186l2.056 2.83 2.057-2.83a7.712 7.712 0 016.257-3.186 7.725 7.725 0 016.244 12.268l-2.056 2.83 3.327 1.081a7.726 7.726 0 01-4.776 14.696M337.007 149.335l-3.326-1.081v3.499a7.727 7.727 0 01-15.453 0v-3.499l-3.327 1.081a7.727 7.727 0 01-4.775-14.696l3.327-1.081-2.056-2.83a7.724 7.724 0 011.709-10.791 7.686 7.686 0 014.535-1.477 7.714 7.714 0 016.257 3.186l2.056 2.83 2.057-2.83a7.712 7.712 0 016.257-3.186 7.725 7.725 0 016.244 12.268l-2.056 2.83 3.327 1.081a7.726 7.726 0 01-4.776 14.696M416.698 144.374a7.728 7.728 0 01-9.736 4.961l-3.326-1.08v3.497a7.727 7.727 0 01-15.453 0v-3.498l-3.327 1.081a7.725 7.725 0 01-9.735-4.96 7.725 7.725 0 014.96-9.736l3.327-1.08-2.056-2.83a7.725 7.725 0 011.71-10.793 7.685 7.685 0 014.534-1.476 7.714 7.714 0 016.257 3.186l2.056 2.83 2.057-2.83a7.712 7.712 0 016.257-3.186 7.726 7.726 0 016.244 12.268l-2.056 2.83 3.327 1.081a7.725 7.725 0 014.96 9.735" fill="#fff"/></g></svg>
